# xmcd CD database file
#
# Track frame offsets:
#	150
#	11832
#	25667
#	35570
#	48965
#	61155
#	73255
#	86317
#	99825
#	115837
#
# Disc length: 1777 seconds
#
# Revision: 2
# Processed by: cddbd v1.5.2PL0 Copyright (c) Steve Scherf et al.
# Submitted via: CDex 1.51
#
DISCID=7506ef0a
DTITLE=Ray Charles - Friendship
DYEAR=1984
DGENRE=Country
TTITLE0=Two Old Cats Like Us (with Hank Williams Jr)
TTITLE1=This Old Heart (Is Gonna Rise Again) (with Oak Ridge Boys)
TTITLE2=We Didn't See a Thing (with George Jones and Chet Atkins)
TTITLE3=Who Cares (with Janie Fricke)
TTITLE4=Rock and Roll Shoes (with BJ Thomas)
TTITLE5=Friendship (with Ricky Skaggs)
TTITLE6=It Ain't Gonna Worry My Mind (with Mickey Gilley)
TTITLE7=Little Hotel Room (with Merle Haggard)
TTITLE8=Crazy Old Soldier (with Johnny Cash)
TTITLE9=Seven Spainish Angels (with Willie Nelson)
EXTD=YEAR: 1984
EXTT0=
EXTT1=
EXTT2=
EXTT3=
EXTT4=
EXTT5=
EXTT6=
EXTT7=
EXTT8=
EXTT9=
PLAYORDER=
